<svg xmlns="http://www.w3.org/2000/svg" width="760" height="640" viewBox="0 0 760 640" font-family="-apple-system, 'Helvetica Neue', sans-serif">
  <rect width="760" height="640" rx="24" fill="#0b0b0f"/>
  <text x="32" y="52" font-size="22" font-weight="800" fill="#eaeaef">Роадмап Python Backend Junior</text>

  <rect x="24" y="72" width="712" height="150" rx="18" fill="url(#gp)" stroke="rgba(255,255,255,.12)"/>
  <defs>
    <linearGradient id="gp" x1="0" y1="0" x2="1" y2="1">
      <stop offset="0" stop-color="rgba(77,168,255,.16)"/>
      <stop offset=".5" stop-color="rgba(48,209,88,.12)"/>
      <stop offset="1" stop-color="rgba(255,214,10,.10)"/>
    </linearGradient>
    <linearGradient id="bar" x1="0" y1="0" x2="1" y2="0">
      <stop offset="0" stop-color="#0a84ff"/>
      <stop offset=".5" stop-color="#30d158"/>
      <stop offset="1" stop-color="#ffd60a"/>
    </linearGradient>
  </defs>

  <text x="48" y="116" font-size="17" font-weight="700" fill="#eaeaef">Изучено <tspan fill="#4da8ff">34</tspan> из <tspan fill="#eaeaef">98</tspan> тем</text>
  <text x="48" y="138" font-size="15" fill="#8a8a94">· 70 блоков</text>
  <text x="688" y="130" font-size="38" font-weight="900" fill="url(#bar)" text-anchor="end">35%</text>

  <rect x="48" y="158" width="664" height="16" rx="10" fill="rgba(0,0,0,.4)"/>
  <rect x="48" y="158" width="232" height="16" rx="10" fill="url(#bar)"/>

  <g>
    <rect x="24" y="246" width="712" height="54" rx="12" fill="#141419" stroke="rgba(255,255,255,.08)"/>
    <text x="48" y="278" font-size="15" fill="#4da8ff" font-weight="800">▸</text>
    <text x="72" y="280" font-size="19" font-weight="700" fill="#eaeaef">Linux: терминал и bash</text>
    <text x="676" y="280" font-size="12" font-weight="500" fill="#8a8a94" text-anchor="end">3/3</text>

    <rect x="24" y="306" width="712" height="54" rx="12" fill="#141419" stroke="rgba(255,255,255,.08)"/>
    <rect x="48" y="326" width="19" height="19" rx="6" fill="#30d158"/>
    <text x="54" y="340" font-size="13" font-weight="800" fill="#fff">✓</text>
    <text x="82" y="340" font-size="16.5" fill="#eaeaef" opacity=".5">Терминал, файлы, команды</text>
    <text x="676" y="340" font-size="12" fill="#8a8a94" text-anchor="end">4/4</text>

    <rect x="24" y="366" width="712" height="54" rx="12" fill="#141419" stroke="rgba(255,255,255,.08)"/>
    <rect x="48" y="386" width="19" height="19" rx="6" stroke="#8a8a94" fill="none"/>
    <text x="82" y="390" font-size="16.5" fill="#eaeaef">Переменные окружения и .env</text>
    <text x="676" y="390" font-size="12" fill="#8a8a94" text-anchor="end">2/3</text>

    <rect x="24" y="426" width="712" height="54" rx="12" fill="#141419" stroke="rgba(255,255,255,.08)"/>
    <rect x="48" y="446" width="19" height="19" rx="6" stroke="#8a8a94" fill="none"/>
    <text x="82" y="450" font-size="16.5" fill="#eaeaef">Основы bash-скриптов</text>
    <text x="676" y="450" font-size="12" fill="#8a8a94" text-anchor="end">1/2</text>

    <rect x="24" y="486" width="712" height="54" rx="12" fill="#141419" stroke="rgba(255,255,255,.08)"/>
    <text x="48" y="518" font-size="15" fill="#4da8ff" font-weight="800">▸</text>
    <text x="72" y="520" font-size="19" font-weight="700" fill="#eaeaef">Python: ядро языка</text>
    <text x="676" y="520" font-size="12" font-weight="500" fill="#8a8a94" text-anchor="end">1/5</text>

    <rect x="24" y="546" width="712" height="54" rx="12" fill="#141419" stroke="rgba(255,255,255,.08)"/>
    <text x="48" y="578" font-size="15" fill="#4da8ff" font-weight="800">▸</text>
    <text x="72" y="580" font-size="19" font-weight="700" fill="#eaeaef">SQL: основы</text>
    <text x="676" y="580" font-size="12" font-weight="500" fill="#8a8a94" text-anchor="end">0/2</text>
  </g>
</svg>